<svg xmlns="http://www.w3.org/2000/svg" xmlns:xlink="http://www.w3.org/1999/xlink" version="1.1" x="0px" y="0px" viewBox="0 0 100 125" enable-background="new 0 0 100 100" xml:space="preserve" fill="#2C3E50"><path d="M72.957,69.281l4.229-7.324c0.221-0.383,0.221-0.854,0-1.236l-4.836-8.374c0.633-0.666,1.027-1.561,1.027-2.552  c0-2.049-1.661-3.711-3.711-3.711c-1.577,0-2.916,0.989-3.453,2.377h-9.15l-3.968-6.873c0.812-0.882,1.318-2.047,1.318-3.336  c0-1.309-0.52-2.491-1.352-3.377l3.942-6.831h7.355c0.26,2.484,2.342,4.436,4.895,4.436c2.729,0,4.947-2.219,4.947-4.946  c0-2.729-2.219-4.947-4.947-4.947c-2.03,0-3.775,1.231-4.537,2.985h-8.426c-0.442,0-0.851,0.235-1.072,0.618l-4.255,7.372  c-0.475-0.152-0.972-0.257-1.498-0.257c-2.284,0-4.192,1.563-4.759,3.671h-4.724c-0.493-1.471-1.866-2.537-3.503-2.537  c-2.049,0-3.71,1.661-3.71,3.71c0,0.938,0.36,1.785,0.934,2.438l-2.561,4.437c-0.496-0.167-1.017-0.278-1.568-0.278  c-2.728,0-4.947,2.219-4.947,4.946c0,2.729,2.219,4.947,4.947,4.947s4.947-2.219,4.947-4.947c0-1.28-0.501-2.438-1.303-3.317  l2.643-4.577c0.202,0.034,0.406,0.063,0.618,0.063c1.59,0,2.936-1.006,3.464-2.411h4.738c0.539,2.148,2.471,3.75,4.784,3.75  c0.543,0,1.056-0.109,1.546-0.271l3.885,6.73l-5.237,9.072c-0.23-0.045-0.466-0.071-0.709-0.071c-2.049,0-3.71,1.661-3.71,3.711  c0,2.049,1.661,3.71,3.71,3.71s3.71-1.661,3.71-3.71c0-0.872-0.313-1.664-0.817-2.298l5.161-8.941h9.209  c0.537,1.387,1.876,2.375,3.452,2.375c0.161,0,0.314-0.027,0.469-0.047l4.551,7.881l-3.871,6.704  c-0.434-0.124-0.881-0.212-1.354-0.212c-2.729,0-4.947,2.219-4.947,4.947c0,2.728,2.219,4.946,4.947,4.946  c2.727,0,4.946-2.219,4.946-4.946C74.407,71.414,73.852,70.177,72.957,69.281z M69.254,25.059c1.364,0,2.474,1.11,2.474,2.475  c0,1.363-1.109,2.474-2.474,2.474c-1.363,0-2.473-1.11-2.473-2.474C66.781,26.169,67.891,25.059,69.254,25.059z M29.575,52.166  c-1.364,0-2.474-1.11-2.474-2.475c0-1.363,1.11-2.474,2.474-2.474s2.474,1.11,2.474,2.474  C32.048,51.056,30.938,52.166,29.575,52.166z M46.993,38.252c0-1.364,1.109-2.475,2.473-2.475s2.474,1.11,2.474,2.475  c0,0.795-0.385,1.496-0.969,1.949c-0.028,0.014-0.06,0.013-0.087,0.029c-0.063,0.036-0.102,0.093-0.155,0.138  c-0.371,0.222-0.799,0.357-1.262,0.357C48.102,40.726,46.993,39.615,46.993,38.252z M69.461,75.252c-1.364,0-2.475-1.11-2.475-2.474  c0-1.364,1.11-2.475,2.475-2.475c1.363,0,2.473,1.11,2.473,2.475C71.934,74.142,70.824,75.252,69.461,75.252z"/></svg>